<?xml version="1.0" encoding="UTF-8" standalone="no"?>
<svg
   xmlns:dc="http://purl.org/dc/elements/1.1/"
   xmlns:cc="http://creativecommons.org/ns#"
   xmlns:rdf="http://www.w3.org/1999/02/22-rdf-syntax-ns#"
   xmlns:svg="http://www.w3.org/2000/svg"
   xmlns="http://www.w3.org/2000/svg"
   id="svg8"
   version="1.1"
   viewBox="0 0 111.87201 23.449339"
   height="23.449339mm"
   width="111.87201mm">
  <defs
     id="defs2" />
  <metadata
     id="metadata5">
    <rdf:RDF>
      <cc:Work
         rdf:about="">
        <dc:format>image/svg+xml</dc:format>
        <dc:type
           rdf:resource="http://purl.org/dc/dcmitype/StillImage" />
        <dc:title></dc:title>
      </cc:Work>
    </rdf:RDF>
  </metadata>
  <g
     transform="translate(-3.6417956,-4.2908952)"
     id="layer1">
    <path
       id="path1013"
       d="m 5.5404577,4.2910159 a 1.8773768,1.8773768 0 0 0 -1.759766,2.585937 L 10.157645,23.179688 a 1.8773768,1.8773768 0 0 0 3.494141,0.0078 L 20.077567,6.9804689 A 1.8773768,1.8773768 0 1 0 16.587333,5.5976559 L 11.917411,17.375 7.2767857,5.5097659 a 1.8773768,1.8773768 0 0 0 -1.736328,-1.21875 z"
       style="color:#000000;font-style:normal;font-variant:normal;font-weight:normal;font-stretch:normal;font-size:medium;line-height:normal;font-family:sans-serif;font-variant-ligatures:normal;font-variant-position:normal;font-variant-caps:normal;font-variant-numeric:normal;font-variant-alternates:normal;font-feature-settings:normal;text-indent:0;text-align:start;text-decoration:none;text-decoration-line:none;text-decoration-style:solid;text-decoration-color:#000000;letter-spacing:normal;word-spacing:normal;text-transform:none;writing-mode:lr-tb;direction:ltr;text-orientation:mixed;dominant-baseline:auto;baseline-shift:baseline;text-anchor:start;white-space:normal;shape-padding:0;clip-rule:nonzero;display:inline;overflow:visible;visibility:visible;opacity:1;isolation:auto;mix-blend-mode:normal;color-interpolation:sRGB;color-interpolation-filters:linearRGB;solid-color:#000000;solid-opacity:1;vector-effect:none;fill:#18a7aa;fill-opacity:1;fill-rule:nonzero;stroke:none;stroke-width:3.75437808;stroke-linecap:round;stroke-linejoin:round;stroke-miterlimit:4;stroke-dasharray:none;stroke-dashoffset:0;stroke-opacity:1;color-rendering:auto;image-rendering:auto;shape-rendering:auto;text-rendering:auto;enable-background:accumulate" />
    <path
       id="path1013-5"
       d="m 48.038505,4.4218749 a 1.8771877,1.8771877 0 0 0 -1.759766,2.585937 l 6.378906,16.3027351 a 1.8771877,1.8771877 0 0 0 3.492188,0.0078 L 62.575614,7.1113159 A 1.8771877,1.8771877 0 1 0 59.08538,5.7285039 L 54.417411,17.503894 49.774833,5.6406129 a 1.8771877,1.8771877 0 0 0 -1.736328,-1.21875 z"
       style="color:#000000;font-style:normal;font-variant:normal;font-weight:normal;font-stretch:normal;font-size:medium;line-height:normal;font-family:sans-serif;font-variant-ligatures:normal;font-variant-position:normal;font-variant-caps:normal;font-variant-numeric:normal;font-variant-alternates:normal;font-feature-settings:normal;text-indent:0;text-align:start;text-decoration:none;text-decoration-line:none;text-decoration-style:solid;text-decoration-color:#000000;letter-spacing:normal;word-spacing:normal;text-transform:none;writing-mode:lr-tb;direction:ltr;text-orientation:mixed;dominant-baseline:auto;baseline-shift:baseline;text-anchor:start;white-space:normal;shape-padding:0;clip-rule:nonzero;display:inline;overflow:visible;visibility:visible;opacity:1;isolation:auto;mix-blend-mode:normal;color-interpolation:sRGB;color-interpolation-filters:linearRGB;solid-color:#000000;solid-opacity:1;vector-effect:none;fill:#18a7aa;fill-opacity:1;fill-rule:nonzero;stroke:none;stroke-width:3.75399995;stroke-linecap:round;stroke-linejoin:round;stroke-miterlimit:4;stroke-dasharray:none;stroke-dashoffset:0;stroke-opacity:1;color-rendering:auto;image-rendering:auto;shape-rendering:auto;text-rendering:auto;enable-background:accumulate" />
    <path
       id="path1030"
       d="m 32.977958,4.8320309 c -5.297193,0 -9.63086,4.333667 -9.63086,9.6308601 0,5.297192 4.333667,9.630859 9.63086,9.630859 5.297192,0 9.630859,-4.333667 9.630859,-9.630859 0,-5.2971931 -4.333667,-9.6308601 -9.630859,-9.6308601 z m 0,3.691407 c 3.301595,0 5.939453,2.6378581 5.939453,5.9394531 0,3.301595 -2.637858,5.9375 -5.939453,5.9375 -3.301595,0 -5.9375,-2.635905 -5.9375,-5.9375 0,-3.301595 2.635905,-5.9394531 5.9375,-5.9394531 z"
       style="color:#000000;font-style:normal;font-variant:normal;font-weight:normal;font-stretch:normal;font-size:medium;line-height:normal;font-family:sans-serif;font-variant-ligatures:normal;font-variant-position:normal;font-variant-caps:normal;font-variant-numeric:normal;font-variant-alternates:normal;font-feature-settings:normal;text-indent:0;text-align:start;text-decoration:none;text-decoration-line:none;text-decoration-style:solid;text-decoration-color:#000000;letter-spacing:normal;word-spacing:normal;text-transform:none;writing-mode:lr-tb;direction:ltr;text-orientation:mixed;dominant-baseline:auto;baseline-shift:baseline;text-anchor:start;white-space:normal;shape-padding:0;clip-rule:nonzero;display:inline;overflow:visible;visibility:visible;opacity:1;isolation:auto;mix-blend-mode:normal;color-interpolation:sRGB;color-interpolation-filters:linearRGB;solid-color:#000000;solid-opacity:1;vector-effect:none;fill:#18a7aa;fill-opacity:1;fill-rule:nonzero;stroke:none;stroke-width:3.6925416;stroke-linecap:round;stroke-linejoin:round;stroke-miterlimit:4;stroke-dasharray:none;stroke-dashoffset:0;stroke-opacity:1;color-rendering:auto;image-rendering:auto;shape-rendering:auto;text-rendering:auto;enable-background:accumulate" />
    <path
       id="path1032"
       d="m 73.569755,4.4531249 c -3.624937,0.116318 -6.235818,2.1238 -7.705078,4.302734 -1.242211,1.8422171 -1.729331,3.6143151 -1.716797,5.2617191 a 1.7964601,1.7964601 0 0 0 -0.0098,1.251953 c 0.0522,3.921534 2.686382,7.235686 6.146484,8.632813 3.685771,1.488247 8.519558,0.656698 11.550778,-3.642578 a 1.7968794,1.7968794 0 1 0 -2.9375,-2.070313 c -2.18998,3.106121 -4.871958,3.348166 -7.267574,2.380859 -1.851943,-0.74778 -3.309161,-2.328036 -3.800782,-4.138671 l 13.32425,-0.158203 a 1.7964601,1.7964601 0 0 0 1.77539,-1.814454 c -0.0301,-2.811213 -0.94448,-5.3094051 -2.59961,-7.1093751 -1.65512,-1.79997 -4.03352,-2.844133 -6.666011,-2.896484 a 1.7964601,1.7964601 0 0 0 -0.09375,0 z m 0.07617,3.603516 c 1.730274,0.04834 3.064199,0.66444 4.039059,1.724609 0.66314,0.7211651 1.07934,1.7535731 1.34766,2.9257811 l -11.083985,0.13086 c 0.188932,-0.657928 0.447967,-1.411957 0.894531,-2.074219 0.982392,-1.4569011 2.415234,-2.6155661 4.802735,-2.7070311 z m -9.585938,6.4648431 c -0.0071,0.0926 0.03145,0.173635 0.02734,0.265625 0.0063,0.0477 -0.01914,0.103003 -0.01172,0.150391 z"
       style="color:#000000;font-style:normal;font-variant:normal;font-weight:normal;font-stretch:normal;font-size:medium;line-height:normal;font-family:sans-serif;font-variant-ligatures:normal;font-variant-position:normal;font-variant-caps:normal;font-variant-numeric:normal;font-variant-alternates:normal;font-feature-settings:normal;text-indent:0;text-align:start;text-decoration:none;text-decoration-line:none;text-decoration-style:solid;text-decoration-color:#000000;letter-spacing:normal;word-spacing:normal;text-transform:none;writing-mode:lr-tb;direction:ltr;text-orientation:mixed;dominant-baseline:auto;baseline-shift:baseline;text-anchor:start;white-space:normal;shape-padding:0;clip-rule:nonzero;display:inline;overflow:visible;visibility:visible;opacity:1;isolation:auto;mix-blend-mode:normal;color-interpolation:sRGB;color-interpolation-filters:linearRGB;solid-color:#000000;solid-opacity:1;vector-effect:none;fill:#18a7aa;fill-opacity:1;fill-rule:nonzero;stroke:none;stroke-width:3.59256101;stroke-linecap:round;stroke-linejoin:round;stroke-miterlimit:4;stroke-dasharray:none;stroke-dashoffset:0;stroke-opacity:1;color-rendering:auto;image-rendering:auto;shape-rendering:auto;text-rendering:auto;enable-background:accumulate" />
    <path
       id="path1032-1"
       d="m 106.17132,4.3886719 c -3.55316,0.130673 -6.10867,1.981156 -7.521484,4.054687 -1.38271,2.0293471 -1.87966,4.0556431 -1.64844,5.8046881 -0.1846,4.139761 2.59361,7.657404 6.199224,9.113281 3.68577,1.488247 8.5176,0.6567 11.54883,-3.642578 a 1.7964601,1.7964601 0 1 0 -2.93555,-2.070312 c -2.18999,3.106121 -4.87196,3.350119 -7.26758,2.382812 -2.39562,-0.967307 -4.17833,-3.321106 -3.99023,-5.775391 a 1.7964601,1.7964601 0 0 0 -0.0156,-0.414062 c -0.0414,-0.264299 0.17304,-2.048592 1.07813,-3.376953 0.90508,-1.3283621 2.25299,-2.4131911 4.71484,-2.4921881 a 1.7964601,1.7964601 0 0 0 0.0762,-0.0039 c 1.25956,-0.09456 2.63877,0.332444 3.69336,1.0625 1.0546,0.730056 1.71289,1.7223751 1.83789,2.5136721 a 1.7964601,1.7964601 0 1 0 3.54883,-0.560547 c -0.32513,-2.0581111 -1.65599,-3.7392291 -3.3418,-4.9062501 -1.67806,-1.16166 -3.78103,-1.846522 -5.97656,-1.689453 z"
       style="color:#000000;font-style:normal;font-variant:normal;font-weight:normal;font-stretch:normal;font-size:medium;line-height:normal;font-family:sans-serif;font-variant-ligatures:normal;font-variant-position:normal;font-variant-caps:normal;font-variant-numeric:normal;font-variant-alternates:normal;font-feature-settings:normal;text-indent:0;text-align:start;text-decoration:none;text-decoration-line:none;text-decoration-style:solid;text-decoration-color:#000000;letter-spacing:normal;word-spacing:normal;text-transform:none;writing-mode:lr-tb;direction:ltr;text-orientation:mixed;dominant-baseline:auto;baseline-shift:baseline;text-anchor:start;white-space:normal;shape-padding:0;clip-rule:nonzero;display:inline;overflow:visible;visibility:visible;opacity:1;isolation:auto;mix-blend-mode:normal;color-interpolation:sRGB;color-interpolation-filters:linearRGB;solid-color:#000000;solid-opacity:1;vector-effect:none;fill:#18a7aa;fill-opacity:1;fill-rule:nonzero;stroke:none;stroke-width:3.59256101;stroke-linecap:round;stroke-linejoin:round;stroke-miterlimit:4;stroke-dasharray:none;stroke-dashoffset:0;stroke-opacity:1;color-rendering:auto;image-rendering:auto;shape-rendering:auto;text-rendering:auto;enable-background:accumulate" />
    <path
       id="path1058"
       d="m 87.241626,4.5058589 a 1.6326633,1.6326633 0 0 0 -1.60156,1.66211 l 0.0664,16.5039061 a 1.6328243,1.6328243 0 1 0 3.26562,-0.01367 l -0.0664,-16.5039061 a 1.6326633,1.6326633 0 0 0 -1.66407,-1.648438 z"
       style="color:#000000;font-style:normal;font-variant:normal;font-weight:normal;font-stretch:normal;font-size:medium;line-height:normal;font-family:sans-serif;font-variant-ligatures:normal;font-variant-position:normal;font-variant-caps:normal;font-variant-numeric:normal;font-variant-alternates:normal;font-feature-settings:normal;text-indent:0;text-align:start;text-decoration:none;text-decoration-line:none;text-decoration-style:solid;text-decoration-color:#000000;letter-spacing:normal;word-spacing:normal;text-transform:none;writing-mode:lr-tb;direction:ltr;text-orientation:mixed;dominant-baseline:auto;baseline-shift:baseline;text-anchor:start;white-space:normal;shape-padding:0;clip-rule:nonzero;display:inline;overflow:visible;visibility:visible;opacity:1;isolation:auto;mix-blend-mode:normal;color-interpolation:sRGB;color-interpolation-filters:linearRGB;solid-color:#000000;solid-opacity:1;vector-effect:none;fill:#18a7aa;fill-opacity:1;fill-rule:nonzero;stroke:none;stroke-width:3.2650001;stroke-linecap:round;stroke-linejoin:round;stroke-miterlimit:4;stroke-dasharray:none;stroke-dashoffset:0;stroke-opacity:1;color-rendering:auto;image-rendering:auto;shape-rendering:auto;text-rendering:auto;enable-background:accumulate" />
    <path
       id="path1060"
       d="m 94.360766,5.6855469 c -0.55945,0.03736 -1.09865,0.197686 -1.625,0.375 -1.05269,0.354627 -2.11073,0.920984 -3.10742,1.599609 -0.99669,0.678625 -1.92134,1.463558 -2.65234,2.326172 -0.731,0.8626141 -1.38794,1.7968921 -1.33399,3.1230471 a 1.6326633,1.6326633 0 1 0 3.26172,-0.132813 c 0.006,0.148768 0.0918,-0.325356 0.5625,-0.880859 0.47075,-0.555503 1.20569,-1.198783 1.99805,-1.738281 0.79236,-0.5394981 1.65119,-0.9803461 2.3125,-1.2031251 0.66131,-0.222779 1.06834,-0.08507 0.83203,-0.207031 a 1.6326633,1.6326633 0 1 0 1.49805,-2.900391 c -0.60647,-0.312997 -1.18664,-0.398683 -1.7461,-0.361328 z"
       style="color:#000000;font-style:normal;font-variant:normal;font-weight:normal;font-stretch:normal;font-size:medium;line-height:normal;font-family:sans-serif;font-variant-ligatures:normal;font-variant-position:normal;font-variant-caps:normal;font-variant-numeric:normal;font-variant-alternates:normal;font-feature-settings:normal;text-indent:0;text-align:start;text-decoration:none;text-decoration-line:none;text-decoration-style:solid;text-decoration-color:#000000;letter-spacing:normal;word-spacing:normal;text-transform:none;writing-mode:lr-tb;direction:ltr;text-orientation:mixed;dominant-baseline:auto;baseline-shift:baseline;text-anchor:start;white-space:normal;shape-padding:0;clip-rule:nonzero;display:inline;overflow:visible;visibility:visible;opacity:1;isolation:auto;mix-blend-mode:normal;color-interpolation:sRGB;color-interpolation-filters:linearRGB;solid-color:#000000;solid-opacity:1;vector-effect:none;fill:#18a7aa;fill-opacity:1;fill-rule:nonzero;stroke:none;stroke-width:3.2650001;stroke-linecap:round;stroke-linejoin:round;stroke-miterlimit:4;stroke-dasharray:none;stroke-dashoffset:0;stroke-opacity:1;color-rendering:auto;image-rendering:auto;shape-rendering:auto;text-rendering:auto;enable-background:accumulate" />
    <path
       id="path1062"
       d="m 23.428373,9.9693319 c -1.06084,2.8811871 -0.741034,6.1765681 -0.03341,9.5882941 -2.214292,-1.16607 -3.540248,-2.844642 -3.441097,-5.34539 0.36073,-2.572547 1.73081,-4.133583 3.474507,-4.2429041 z"
       style="fill:#18a7aa;fill-opacity:1;stroke:none;stroke-width:0.26458332px;stroke-linecap:round;stroke-linejoin:round;stroke-opacity:1" />
    <path
       id="path1062-1"
       d="m 42.629105,9.6022409 c 1.036547,2.9110651 0.724066,6.2406181 0.03263,9.6877241 2.163584,-1.178162 3.459173,-2.874141 3.362293,-5.400821 -0.352467,-2.599224 -1.691175,-4.1764491 -3.39494,-4.2869031 z"
       style="fill:#18a7aa;fill-opacity:1;stroke:none;stroke-width:0.26288879px;stroke-linecap:round;stroke-linejoin:round;stroke-opacity:1" />
    <path
       id="path1081"
       d="m 39.063895,24.738281 c -0.490921,0 -0.944277,0.139518 -1.294921,0.394531 -0.350645,0.255014 -0.607422,0.651508 -0.607422,1.107422 0,0.455915 0.256777,0.850455 0.607422,1.105469 0.350644,0.255014 0.804,0.394531 1.294921,0.394531 0.490921,0 0.942325,-0.139517 1.292969,-0.394531 0.350644,-0.255014 0.609375,-0.649554 0.609375,-1.105469 0,-0.455914 -0.258731,-0.852408 -0.609375,-1.107422 -0.350644,-0.255013 -0.802048,-0.394531 -1.292969,-0.394531 z"
       style="color:#000000;font-style:normal;font-variant:normal;font-weight:normal;font-stretch:normal;font-size:medium;line-height:normal;font-family:sans-serif;font-variant-ligatures:normal;font-variant-position:normal;font-variant-caps:normal;font-variant-numeric:normal;font-variant-alternates:normal;font-feature-settings:normal;text-indent:0;text-align:start;text-decoration:none;text-decoration-line:none;text-decoration-style:solid;text-decoration-color:#000000;letter-spacing:normal;word-spacing:normal;text-transform:none;writing-mode:lr-tb;direction:ltr;text-orientation:mixed;dominant-baseline:auto;baseline-shift:baseline;text-anchor:start;white-space:normal;shape-padding:0;clip-rule:nonzero;display:inline;overflow:visible;visibility:visible;opacity:1;isolation:auto;mix-blend-mode:normal;color-interpolation:sRGB;color-interpolation-filters:linearRGB;solid-color:#000000;solid-opacity:1;vector-effect:none;fill:#18a7aa;fill-opacity:1;fill-rule:nonzero;stroke:none;stroke-width:0.86500001;stroke-linecap:round;stroke-linejoin:round;stroke-miterlimit:4;stroke-dasharray:none;stroke-dashoffset:0;stroke-opacity:1;color-rendering:auto;image-rendering:auto;shape-rendering:auto;text-rendering:auto;enable-background:accumulate" />
    <path
       id="path1123"
       d="m 44.188844,17.800422 a 0.33253326,0.33253326 0 0 0 -0.308594,0.384766 c 0.302235,2.104687 -0.08115,3.413994 -0.775391,4.408203 -0.694242,0.994209 -1.736252,1.681312 -2.794922,2.421875 a 0.33253326,0.33253326 0 1 0 0.38086,0.544922 c 1.046563,-0.732094 2.169925,-1.455944 2.958984,-2.585938 0.78906,-1.129994 1.208152,-2.658041 0.888672,-4.882812 a 0.33253326,0.33253326 0 0 0 -0.349609,-0.291016 z"
       style="color:#000000;font-style:normal;font-variant:normal;font-weight:normal;font-stretch:normal;font-size:medium;line-height:normal;font-family:sans-serif;font-variant-ligatures:normal;font-variant-position:normal;font-variant-caps:normal;font-variant-numeric:normal;font-variant-alternates:normal;font-feature-settings:normal;text-indent:0;text-align:start;text-decoration:none;text-decoration-line:none;text-decoration-style:solid;text-decoration-color:#000000;letter-spacing:normal;word-spacing:normal;text-transform:none;writing-mode:lr-tb;direction:ltr;text-orientation:mixed;dominant-baseline:auto;baseline-shift:baseline;text-anchor:start;white-space:normal;shape-padding:0;clip-rule:nonzero;display:inline;overflow:visible;visibility:visible;opacity:1;isolation:auto;mix-blend-mode:normal;color-interpolation:sRGB;color-interpolation-filters:linearRGB;solid-color:#000000;solid-opacity:1;vector-effect:none;fill:#18a7aa;fill-opacity:1;fill-rule:nonzero;stroke:none;stroke-width:0.66500002;stroke-linecap:round;stroke-linejoin:round;stroke-miterlimit:4;stroke-dasharray:none;stroke-dashoffset:0;stroke-opacity:1;color-rendering:auto;image-rendering:auto;shape-rendering:auto;text-rendering:auto;enable-background:accumulate" />
  </g>
</svg>
